HIERARCHY
ROOT Hips
{
  OFFSET 5.84602e-005 68.8428 3.50346
  CHANNELS 6 Xposition Yposition Zposition Zrotation Xrotation Yrotation
  JOINT Spine
  {
    OFFSET 0 8.597 -4.6522
    CHANNELS 3 Zrotation Xrotation Yrotation
    JOINT Spine1
    {
      OFFSET 0 7.8454 0.4098
      CHANNELS 3 Zrotation Xrotation Yrotation
      JOINT Spine2
      {
        OFFSET 0 9.7078 -2.1609
        CHANNELS 3 Zrotation Xrotation Yrotation
        JOINT Neck
        {
          OFFSET 0 21.8761 -0.4549
          CHANNELS 3 Zrotation Xrotation Yrotation
          JOINT Head
          {
            OFFSET 0 12.3537 3.3602
            CHANNELS 3 Zrotation Xrotation Yrotation
            End Site
            {
              OFFSET 0.0001 18.9506 0.5657
            }
          }
        }
        JOINT LeftShoulder
        {
          OFFSET 2.2086 21.1115 7.2329
          CHANNELS 3 Zrotation Xrotation Yrotation
          JOINT LeftArm
          {
            OFFSET 13.1193 3.0282 -4.8998
            CHANNELS 3 Zrotation Xrotation Yrotation
            JOINT LeftForeArm
            {
              OFFSET 27.4081 -0.0973053 -0.2375
              CHANNELS 3 Zrotation Xrotation Yrotation
              JOINT LeftHand
              {
                OFFSET 22.8641 0.0662994 -0.1369
                CHANNELS 3 Zrotation Xrotation Yrotation
                JOINT LeftHandIndex1
                {
                  OFFSET 8.8614 0.775009 2.4612
                  CHANNELS 3 Zrotation Xrotation Yrotation
                  JOINT LeftHandIndex2
                  {
                    OFFSET 3.3146 -0.808304 0.5841
                    CHANNELS 3 Zrotation Xrotation Yrotation
                    JOINT LeftHandIndex3
                    {
                      OFFSET 2.2628 -0.552002 0.3989
                      CHANNELS 3 Zrotation Xrotation Yrotation
                      End Site
                      {
                        OFFSET 1.6102 -0.4807 0.2612
                      }
                    }
                  }
                }
                JOINT LeftHandMiddle1
                {
                  OFFSET 8.9937 0.895004 0.2143
                  CHANNELS 3 Zrotation Xrotation Yrotation
                  JOINT LeftHandMiddle2
                  {
                    OFFSET 4.0984 0.0113983 -0.0242
                    CHANNELS 3 Zrotation Xrotation Yrotation
                    JOINT LeftHandMiddle3
                    {
                      OFFSET 2.2716 0.00689697 -0.0138001
                      CHANNELS 3 Zrotation Xrotation Yrotation
                      End Site
                      {
                        OFFSET 2.0404 -0.1441 0.0027
                      }
                    }
                  }
                }
                JOINT LeftHandRing1
                {
                  OFFSET 8.5234 0.597198 -2.0164
                  CHANNELS 3 Zrotation Xrotation Yrotation
                  JOINT LeftHandRing2
                  {
                    OFFSET 3.7188 -0.188293 -0.2328
                    CHANNELS 3 Zrotation Xrotation Yrotation
                    JOINT LeftHandRing3
                    {
                      OFFSET 2.1191 -0.106598 -0.1332
                      CHANNELS 3 Zrotation Xrotation Yrotation
                      End Site
                      {
                        OFFSET 1.8737 -0.2304 -0.0886
                      }
                    }
                  }
                }
                JOINT LeftHandPinky1
                {
                  OFFSET 7.9094 -0.601089 -3.4825
                  CHANNELS 3 Zrotation Xrotation Yrotation
                  JOINT LeftHandPinky2
                  {
                    OFFSET 2.2874 -0.477005 -0.6314
                    CHANNELS 3 Zrotation Xrotation Yrotation
                    JOINT LeftHandPinky3
                    {
                      OFFSET 1.6774 -0.349396 -0.4633
                      CHANNELS 3 Zrotation Xrotation Yrotation
                      End Site
                      {
                        OFFSET 1.4888 -0.4091 -0.3416
                      }
                    }
                  }
                }
                JOINT LeftHandThumb1
                {
                  OFFSET 1.833 -1.3875 1.3896
                  CHANNELS 3 Zrotation Xrotation Yrotation
                  JOINT LeftHandThumb2
                  {
                    OFFSET 3.4129 -1.121 2.5732
                    CHANNELS 3 Zrotation Xrotation Yrotation
                    JOINT LeftHandThumb3
                    {
                      OFFSET 2.2474 -0.804199 1.6192
                      CHANNELS 3 Zrotation Xrotation Yrotation
                      End Site
                      {
                        OFFSET 1.6527 -0.5689 1.1317
                      }
                    }
                  }
                }
              }
            }
          }
        }
        JOINT RightShoulder
        {
          OFFSET -2.2086 21.1115 7.2329
          CHANNELS 3 Zrotation Xrotation Yrotation
          JOINT RightArm
          {
            OFFSET -13.1216 3.0287 -4.9007
            CHANNELS 3 Zrotation Xrotation Yrotation
            JOINT RightForeArm
            {
              OFFSET -27.4081 -0.0973053 -0.2375
              CHANNELS 3 Zrotation Xrotation Yrotation
              JOINT RightHand
              {
                OFFSET -22.8641 0.0664063 -0.1369
                CHANNELS 3 Zrotation Xrotation Yrotation
                JOINT RightHandIndex1
                {
                  OFFSET -8.8614 0.774994 2.4612
                  CHANNELS 3 Zrotation Xrotation Yrotation
                  JOINT RightHandIndex2
                  {
                    OFFSET -3.3146 -0.808304 0.5841
                    CHANNELS 3 Zrotation Xrotation Yrotation
                    JOINT RightHandIndex3
                    {
                      OFFSET -2.2628 -0.552002 0.3989
                      CHANNELS 3 Zrotation Xrotation Yrotation
                      End Site
                      {
                        OFFSET -1.6102 -0.4807 0.2612
                      }
                    }
                  }
                }
                JOINT RightHandMiddle1
                {
                  OFFSET -8.9937 0.894989 0.2143
                  CHANNELS 3 Zrotation Xrotation Yrotation
                  JOINT RightHandMiddle2
                  {
                    OFFSET -4.0984 0.0113983 -0.0242
                    CHANNELS 3 Zrotation Xrotation Yrotation
                    JOINT RightHandMiddle3
                    {
                      OFFSET -2.2716 0.00691223 -0.0138001
                      CHANNELS 3 Zrotation Xrotation Yrotation
                      End Site
                      {
                        OFFSET -2.0404 -0.1441 0.0027
                      }
                    }
                  }
                }
                JOINT RightHandRing1
                {
                  OFFSET -8.5234 0.597198 -2.0164
                  CHANNELS 3 Zrotation Xrotation Yrotation
                  JOINT RightHandRing2
                  {
                    OFFSET -3.7188 -0.188309 -0.2328
                    CHANNELS 3 Zrotation Xrotation Yrotation
                    JOINT RightHandRing3
                    {
                      OFFSET -2.1191 -0.106598 -0.1332
                      CHANNELS 3 Zrotation Xrotation Yrotation
                      End Site
                      {
                        OFFSET -1.8737 -0.2304 -0.0886
                      }
                    }
                  }
                }
                JOINT RightHandPinky1
                {
                  OFFSET -7.9094 -0.601105 -3.4825
                  CHANNELS 3 Zrotation Xrotation Yrotation
                  JOINT RightHandPinky2
                  {
                    OFFSET -2.2874 -0.477005 -0.6314
                    CHANNELS 3 Zrotation Xrotation Yrotation
                    JOINT RightHandPinky3
                    {
                      OFFSET -1.6774 -0.349396 -0.4633
                      CHANNELS 3 Zrotation Xrotation Yrotation
                      End Site
                      {
                        OFFSET -1.4888 -0.4091 -0.3416
                      }
                    }
                  }
                }
                JOINT RightHandThumb1
                {
                  OFFSET -1.833 -1.38751 1.3896
                  CHANNELS 3 Zrotation Xrotation Yrotation
                  JOINT RightHandThumb2
                  {
                    OFFSET -3.41299 -1.12099 2.5732
                    CHANNELS 3 Zrotation Xrotation Yrotation
                    JOINT RightHandThumb3
                    {
                      OFFSET -2.24741 -0.804108 1.6192
                      CHANNELS 3 Zrotation Xrotation Yrotation
                      End Site
                      {
                        OFFSET -1.6527 -0.5689 1.1317
                      }
                    }
                  }
                }
              }
            }
          }
        }
      }
    }
  }
  JOINT RightUpLeg
  {
    OFFSET -9.1966 3.8861 -0.7581
    CHANNELS 3 Zrotation Xrotation Yrotation
    JOINT RightLeg
    {
      OFFSET -0.7359 -41.0265 0
      CHANNELS 3 Zrotation Xrotation Yrotation
      JOINT RightFoot
      {
        OFFSET 0 -40.2855 0
        CHANNELS 3 Zrotation Xrotation Yrotation
        JOINT RightToeBase
        {
          OFFSET 0 -5.6122 11.7359
          CHANNELS 3 Zrotation Xrotation Yrotation
          End Site
          {
            OFFSET 0 0 7.8731
          }
        }
      }
    }
  }
  JOINT LeftUpLeg
  {
    OFFSET 9.1965 3.8864 -0.7581
    CHANNELS 3 Zrotation Xrotation Yrotation
    JOINT LeftLeg
    {
      OFFSET 0.7359 -41.0268 0
      CHANNELS 3 Zrotation Xrotation Yrotation
      JOINT LeftFoot
      {
        OFFSET 0 -40.2855 0
        CHANNELS 3 Zrotation Xrotation Yrotation
        JOINT LeftToeBase
        {
          OFFSET 0 -5.6122 11.7359
          CHANNELS 3 Zrotation Xrotation Yrotation
          End Site
          {
            OFFSET 0 0 7.8731
          }
        }
      }
    }
  }
}
MOTION
Frames:	4
Frame Time:	0.0333333
-24.1214 9.42145 2.64055 0 0 -0 0.0299065 23.1091 -0.0678705 0.10816 46.2181 -0.175055 0.10816 46.2181 -0.175055 7.38147 -14.1235 3.48429 10.6678 -34.8781 6.35081 177.723 -68.5433 139.362 -6.90063 -1.50644 -31.2129 -5.85418 1.19948 -15.9222 36.4048 -16.9379 1.42121 2.25007e-007 2.10186e-007 -8.76641e-008 4.50013e-007 4.20371e-007 -1.75328e-007 6.00018e-007 5.60495e-007 -2.33771e-007 2.25007e-007 2.10186e-007 -8.76641e-008 -0.0146282 -8.43561e-005 1.46784e-006 6.00019e-007 5.60525e-007 -2.337e-007 2.25007e-007 2.10186e-007 -8.76641e-008 -0.0187529 -0.00117323 5.96735e-005 6.00017e-007 5.60533e-007 -2.33685e-007 2.25007e-007 2.10186e-007 -8.76641e-008 -0.0122922 -0.00325647 0.000680077 6.00015e-007 5.60517e-007 -2.33728e-007 2.25007e-007 2.10186e-007 -8.76641e-008 4.50013e-007 4.20371e-007 -1.75328e-007 6.00018e-007 5.60495e-007 -2.33771e-007 -7.06723 -48.3801 21.159 16.1778 5.44319 30.3493 7.99707 0.868082 8.07195 -40.9951 -5.7915 -34.3521 5.53934e-007 -1.23388e-007 -3.34527e-006 -1.50908e-006 4.26652e-007 -6.54237e-007 -1.00302e-007 4.49692e-008 -1.8362e-006 5.53934e-007 -1.23388e-007 -3.34527e-006 0.0150027 -8.89773e-005 -5.17795e-007 9.49122e-007 2.13712e-006 -1.43182e-006 5.53934e-007 -1.23388e-007 -3.34527e-006 0.0190473 -0.00118792 -6.26594e-005 -1.00237e-007 4.46586e-008 -1.8362e-006 5.53934e-007 -1.23388e-007 -3.34527e-006 0.012314 -0.00326317 -0.000680355 -1.003e-007 4.47567e-008 -1.8362e-006 5.53934e-007 -1.23388e-007 -3.34527e-006 -1.50908e-006 4.26652e-007 -6.54237e-007 -1.00302e-007 4.49692e-008 -1.8362e-006 -4.33599 -49.961 -14.2275 -174.689 28.9098 170.063 -3.85307 50.9961 -10.0791 -2.06018e-007 -1.88068e-008 5.2474e-008 4.20057 -49.9217 14.1185 174.773 28.9612 -170.104 3.94465 50.4129 10.0218 -2.38542e-015 0 -0 
-24.1214 9.42145 2.64055 0 0 -0 0.0299065 23.1091 -0.0678705 0.10816 46.2181 -0.175055 0.10816 46.2181 -0.175055 7.3758 -13.9473 3.46076 10.583 -34.8453 6.29772 177.823 -68.576 139.424 -6.97509 -1.46072 -31.2721 -5.85418 1.19947 -15.9222 36.4048 -16.9379 1.42121 7.49765e-008 7.01011e-008 -2.91987e-008 -5.26439e-007 3.93237e-007 3.63116e-007 5.26439e-007 -3.93237e-007 -3.63116e-007 7.49765e-008 7.01011e-008 -2.91987e-008 -0.0146146 -8.90195e-005 1.39228e-006 1.49953e-007 1.4021e-007 -5.83797e-008 7.49765e-008 7.01011e-008 -2.91987e-008 -0.0187314 -0.00117366 5.97389e-005 1.49953e-007 1.40212e-007 -5.83761e-008 7.49765e-008 7.01011e-008 -2.91987e-008 -0.0122692 -0.00325025 0.000665964 1.49952e-007 1.40208e-007 -5.83867e-008 7.49765e-008 7.01011e-008 -2.91987e-008 -5.26439e-007 3.93237e-007 3.63116e-007 5.26439e-007 -3.93237e-007 -3.63116e-007 -7.20282 -48.452 20.9491 16.2063 5.45998 30.436 8.03148 0.873191 8.12831 -40.9951 -5.79151 -34.3521 -1.50922e-006 4.27264e-007 -6.53488e-007 2.06159e-006 -5.50446e-007 -2.6917e-006 -7.54612e-007 2.13632e-007 -3.26744e-007 -1.50922e-006 4.27264e-007 -6.53488e-007 0.0150122 -8.80278e-005 -3.74607e-006 -7.54601e-007 2.13589e-007 -3.26772e-007 -1.50922e-006 4.27264e-007 -6.53488e-007 0.019038 -0.00119221 -5.81208e-005 -7.54601e-007 2.13577e-007 -3.26772e-007 -1.50922e-006 4.27264e-007 -6.53488e-007 0.0122816 -0.00325221 -0.000679276 -7.54613e-007 2.1359e-007 -3.26746e-007 -1.50922e-006 4.27264e-007 -6.53488e-007 2.06159e-006 -5.50446e-007 -2.6917e-006 -7.54612e-007 2.13632e-007 -3.26744e-007 -4.33599 -49.961 -14.2275 -174.689 28.9098 170.063 -3.85307 50.9961 -10.0791 -2.06018e-007 -1.88068e-008 5.2474e-008 4.20057 -49.9217 14.1185 174.773 28.9612 -170.104 3.94465 50.4129 10.0218 -2.38542e-015 0 -0 
-24.1214 9.42145 2.64055 0 0 -0 0.0299065 23.1091 -0.0678705 0.10816 46.2181 -0.175055 0.10816 46.2181 -0.175055 7.37018 -13.771 3.43725 10.4982 -34.8124 6.2447 177.923 -68.6087 139.486 -7.04951 -1.41491 -31.3313 -5.85418 1.19947 -15.9222 36.4048 -16.9379 1.42121 1.49901e-007 1.40281e-007 -5.83521e-008 -1.49901e-007 -1.40281e-007 5.83521e-008 -6.74556e-007 -6.31264e-007 2.62584e-007 1.49901e-007 1.40281e-007 -5.83521e-008 -0.0145968 -8.61359e-005 -1.40889e-006 -6.74557e-007 -6.31297e-007 2.62504e-007 1.49901e-007 1.40281e-007 -5.83521e-008 -0.0187353 -0.00117375 5.37585e-005 -6.74555e-007 -6.31306e-007 2.62488e-007 1.49901e-007 1.40281e-007 -5.83521e-008 -0.0122546 -0.0032422 0.000677401 -6.74553e-007 -6.31288e-007 2.62536e-007 1.49901e-007 1.40281e-007 -5.83521e-008 -1.49901e-007 -1.40281e-007 5.83521e-008 -6.74556e-007 -6.31264e-007 2.62584e-007 -7.33901 -48.5236 20.7386 16.2347 5.47679 30.5226 8.06587 0.878312 8.18468 -40.9951 -5.7915 -34.3521 -7.54684e-007 2.13939e-007 -3.2637e-007 2.88008e-007 2.29416e-006 8.84617e-008 -1.86935e-007 9.38516e-007 -7.51744e-007 -7.54684e-007 2.13939e-007 -3.2637e-007 0.0150355 -9.10435e-005 2.59133e-006 -1.88986e-007 9.3843e-007 -7.51868e-007 -7.54684e-007 2.13939e-007 -3.2637e-007 0.0190198 -0.00119075 -5.63022e-005 -7.54673e-007 2.13884e-007 -3.26398e-007 -7.54684e-007 2.13939e-007 -3.2637e-007 0.0123029 -0.00325349 -0.000674975 -7.54685e-007 2.13897e-007 -3.26372e-007 -7.54684e-007 2.13939e-007 -3.2637e-007 2.88008e-007 2.29416e-006 8.84617e-008 -1.86935e-007 9.38516e-007 -7.51744e-007 -4.33599 -49.961 -14.2275 -174.689 28.9098 170.063 -3.85307 50.9961 -10.0791 -2.06018e-007 -1.88068e-008 5.2474e-008 4.20057 -49.9217 14.1185 174.773 28.9612 -170.104 3.94465 50.4129 10.0218 -2.38542e-015 0 -0 
-24.1214 9.42145 2.64055 0 0 -0 0.0299065 23.1091 -0.0678705 0.10816 46.2181 -0.175055 0.10816 46.2181 -0.175055 7.36462 -13.5947 3.41377 10.4134 -34.7796 6.19176 178.023 -68.6414 139.549 -7.12388 -1.36902 -31.3904 -5.85418 1.19947 -15.9222 36.4048 -16.9379 1.42121 -2.99699e-007 -2.80718e-007 1.16613e-007 -7.49247e-008 -7.01795e-008 2.91533e-008 -2.99699e-007 -2.80718e-007 1.16613e-007 -2.99699e-007 -2.80718e-007 1.16613e-007 -0.0145828 -8.76423e-005 2.93922e-006 -2.99699e-007 -2.80733e-007 1.16578e-007 -2.99699e-007 -2.80718e-007 1.16613e-007 -0.0187833 -0.00117641 6.23882e-005 1.0162e-007 -7.97394e-007 -1.88761e-007 -2.99699e-007 -2.80718e-007 1.16613e-007 -0.0123157 -0.00325694 0.000688248 -2.99697e-007 -2.80729e-007 1.16591e-007 -2.99699e-007 -2.80718e-007 1.16613e-007 -7.49247e-008 -7.01795e-008 2.91533e-008 -2.99699e-007 -2.80718e-007 1.16613e-007 -7.47583 -48.5948 20.5275 16.2631 5.49367 30.6093 8.10027 0.883466 8.24106 -40.9951 -5.7915 -34.3521 1.50951e-006 -4.28494e-007 6.51995e-007 2.8135e-006 -7.65504e-007 -2.36702e-006 7.06225e-031 6.36111e-015 -6.36111e-015 1.50951e-006 -4.28494e-007 6.51995e-007 0.0150397 -9.10386e-005 6.9268e-007 5.69398e-007 7.30551e-007 -4.31055e-007 1.50951e-006 -4.28494e-007 6.51995e-007 0.0189629 -0.00118857 -6.33603e-005 5.68855e-007 7.30687e-007 -4.31076e-007 1.50951e-006 -4.28494e-007 6.51995e-007 0.0123052 -0.00325542 -0.000683221 0 9.54166e-015 -0 1.50951e-006 -4.28494e-007 6.51995e-007 2.8135e-006 -7.65504e-007 -2.36702e-006 7.06225e-031 6.36111e-015 -6.36111e-015 -4.33599 -49.961 -14.2275 -174.689 28.9098 170.063 -3.85307 50.9961 -10.0791 -2.06018e-007 -1.88068e-008 5.2474e-008 4.20057 -49.9217 14.1185 174.773 28.9612 -170.104 3.94465 50.4129 10.0218 -2.38542e-015 0 -0 
